<?xml version="1.0" standalone="no"?>
<!DOCTYPE svg PUBLIC "-//W3C//DTD SVG 20010904//EN"
 "http://www.w3.org/TR/2001/REC-SVG-20010904/DTD/svg10.dtd">
<svg version="1.0" xmlns="http://www.w3.org/2000/svg"
 width="684.000000pt" height="684.000000pt" viewBox="0 0 684.000000 684.000000"
 preserveAspectRatio="xMidYMid meet">
<metadata>
Created by potrace 1.14, written by Peter Selinger 2001-2017
</metadata>
<g transform="translate(0.000000,684.000000) scale(0.100000,-0.100000)"
fill="#000000" stroke="none">
<path d="M3189 6786 c-2 -2 -38 -7 -79 -10 -109 -11 -209 -23 -255 -32 -27 -6
-74 -14 -110 -20 -56 -9 -299 -72 -385 -100 -47 -15 -87 -28 -90 -29 -3 -1
-14 -5 -25 -10 -11 -4 -60 -24 -110 -43 -261 -100 -611 -299 -814 -463 -34
-27 -65 -49 -70 -49 -5 0 -11 -4 -13 -8 -1 -4 -43 -44 -93 -87 -105 -93 -265
-253 -265 -266 0 -5 -7 -9 -15 -9 -8 0 -15 -4 -15 -8 0 -5 -8 -17 -18 -28 -15
-17 -101 -121 -135 -164 -50 -63 -127 -177 -233 -345 -40 -65 -194 -364 -194
-379 0 -2 -8 -21 -17 -42 -9 -22 -17 -41 -18 -44 -1 -3 -7 -18 -14 -35 -14
-32 -90 -260 -96 -285 -2 -8 -11 -44 -20 -80 -21 -79 -19 -72 -43 -195 -11
-55 -23 -125 -27 -155 -4 -30 -9 -63 -11 -73 -12 -65 -19 -212 -19 -397 0
-221 7 -342 28 -480 15 -96 21 -135 22 -140 2 -7 17 -81 20 -100 14 -77 103
-378 132 -450 4 -8 7 -17 8 -20 18 -52 111 -259 147 -330 62 -118 175 -312
201 -345 4 -5 30 -41 58 -80 143 -202 364 -446 529 -585 29 -25 58 -50 64 -55
6 -6 31 -26 56 -45 25 -19 50 -39 56 -45 6 -6 37 -28 70 -50 32 -22 61 -43 64
-46 3 -3 32 -23 65 -44 33 -21 76 -48 95 -61 59 -39 294 -164 307 -164 7 0 13
-4 13 -10 0 -5 7 -10 15 -10 8 0 42 -13 77 -29 35 -16 83 -37 108 -46 25 -9
56 -22 70 -28 14 -6 28 -11 33 -12 4 -2 9 -4 12 -5 3 -1 8 -3 13 -4 4 -1 59
-18 122 -38 99 -31 157 -47 175 -49 2 0 19 -5 37 -10 18 -6 44 -12 58 -15 14
-2 36 -7 50 -10 14 -4 34 -8 45 -10 11 -1 45 -7 75 -13 97 -18 198 -31 276
-35 22 -2 45 -5 50 -8 12 -7 551 -2 584 5 14 3 50 8 80 11 50 4 157 20 220 32
14 2 41 7 60 10 19 3 103 23 185 45 83 21 158 41 168 43 9 3 22 8 27 11 5 3
18 8 27 10 29 5 221 80 323 125 162 71 426 217 517 286 17 13 36 24 41 24 6 0
12 4 14 8 2 4 48 41 103 82 103 78 112 85 209 172 74 66 247 241 301 304 22
26 45 52 50 58 6 6 26 31 45 56 19 25 38 47 42 48 5 2 8 10 8 18 0 8 4 14 8
14 10 0 132 176 132 190 0 6 3 10 8 10 4 0 22 26 40 58 18 31 42 73 54 92 41
69 127 240 120 240 -4 0 -2 4 4 8 16 10 180 424 174 440 0 1 6 26 15 56 9 29
17 62 19 72 2 11 9 37 15 59 11 45 37 169 46 230 20 125 23 148 32 255 14 153
7 593 -11 690 -2 14 -7 48 -10 76 -19 168 -114 540 -177 689 -7 17 -13 32 -13
35 -1 3 -18 47 -40 98 -52 127 -140 297 -231 450 -35 59 -176 263 -200 288 -5
6 -23 29 -40 50 -102 130 -274 311 -400 421 -33 28 -71 62 -85 74 -36 31 -207
159 -260 194 -25 17 -51 36 -58 43 -7 6 -19 12 -27 12 -7 0 -15 4 -17 8 -4 12
-190 117 -313 179 -183 91 -491 207 -605 228 -14 2 -36 9 -50 15 -26 10 -258
58 -320 66 -19 2 -46 7 -60 9 -34 7 -126 17 -176 19 -22 2 -45 5 -50 8 -10 5
-489 9 -495 4z m541 -310 c25 -3 59 -7 75 -10 17 -3 53 -8 80 -11 28 -3 61 -8
75 -12 14 -3 34 -7 45 -8 11 -2 54 -11 95 -20 104 -23 105 -23 108 -25 1 -2
10 -3 20 -5 9 -1 24 -4 32 -8 23 -8 90 -29 103 -31 7 -1 17 -4 22 -7 6 -4 24
-9 40 -13 17 -4 44 -13 60 -21 17 -7 68 -27 115 -46 98 -37 306 -138 406 -197
71 -41 274 -176 309 -205 11 -9 40 -32 65 -52 201 -163 388 -355 539 -555 206
-274 371 -591 470 -905 13 -38 25 -77 28 -85 3 -8 7 -22 9 -30 2 -12 27 -119
51 -220 10 -41 22 -113 29 -175 2 -16 5 -46 8 -65 18 -121 24 -442 12 -575
-13 -133 -14 -150 -21 -200 -3 -27 -8 -57 -10 -65 -2 -8 -7 -34 -10 -57 -12
-89 -88 -375 -122 -463 -4 -8 -7 -17 -8 -20 -1 -3 -5 -14 -10 -25 -4 -11 -21
-54 -37 -95 -34 -87 -149 -323 -160 -328 -5 -2 -8 -7 -8 -12 0 -7 -105 -183
-123 -205 -4 -5 -40 -55 -80 -110 -39 -55 -79 -107 -87 -116 -8 -9 -35 -40
-60 -69 -241 -283 -572 -544 -922 -729 -54 -28 -98 -48 -98 -45 0 4 -6 2 -13
-4 -30 -25 -427 -180 -427 -166 0 2 -17 -2 -37 -10 -34 -13 -67 -22 -98 -27
-5 -1 -19 -5 -31 -9 -11 -5 -38 -11 -60 -14 -21 -4 -55 -11 -74 -16 -36 -9
-71 -15 -155 -25 -27 -4 -57 -8 -65 -10 -70 -19 -515 -26 -675 -11 -104 9
-149 14 -152 17 -2 1 -11 2 -20 3 -111 12 -364 71 -517 121 -231 75 -491 195
-674 311 -29 19 -55 34 -58 34 -2 0 -10 5 -17 10 -7 6 -61 46 -122 90 -60 43
-123 90 -140 104 -16 15 -50 43 -74 64 -56 46 -271 258 -271 266 0 3 -17 22
-37 43 -21 22 -72 84 -113 138 -41 55 -78 101 -82 103 -5 2 -8 8 -8 14 0 5
-11 24 -24 41 -38 50 -132 208 -184 310 -115 221 -221 517 -268 742 -22 107
-35 185 -50 310 -22 190 -22 482 0 670 2 17 6 55 10 86 3 30 7 62 10 70 3 8 8
31 11 52 17 123 95 405 142 517 3 8 7 17 7 20 4 22 90 214 134 299 47 90 161
287 184 316 4 6 36 48 69 95 125 173 321 385 469 510 36 30 67 57 70 60 3 3
34 28 70 55 36 28 67 52 70 55 3 3 12 10 21 15 9 6 54 35 100 66 140 94 316
190 459 251 130 56 168 71 280 108 120 40 322 92 404 104 21 4 48 8 60 11 52
11 131 21 250 31 33 2 61 6 63 8 6 5 470 -2 523 -8z"/>
<path d="M3796 6043 c-1 -1 -47 -4 -104 -7 -98 -6 -145 -10 -223 -21 -20 -3
-52 -8 -70 -10 -19 -3 -45 -7 -59 -10 -14 -3 -43 -8 -64 -10 -21 -3 -42 -8
-46 -10 -4 -3 -25 -7 -46 -10 -22 -4 -47 -8 -56 -11 -9 -3 -26 -7 -37 -9 -27
-6 -45 -11 -101 -24 -55 -14 -53 -14 -165 -46 -49 -15 -104 -30 -121 -34 -18
-5 -37 -11 -43 -15 -6 -4 -19 -9 -28 -11 -19 -3 -153 -50 -188 -65 -11 -4 -58
-23 -105 -41 -47 -18 -101 -39 -120 -47 -19 -9 -37 -16 -40 -17 -3 0 -31 -13
-64 -28 -32 -15 -64 -27 -71 -27 -7 0 -18 -7 -25 -15 -7 -8 -17 -15 -23 -15
-15 0 -259 -122 -275 -137 -7 -7 -17 -13 -22 -13 -19 0 -336 -195 -399 -246
-9 -7 -51 -40 -93 -73 -43 -33 -110 -93 -149 -133 -71 -72 -159 -191 -159
-215 0 -7 -5 -13 -12 -13 -6 0 -9 -2 -6 -5 3 -3 0 -24 -6 -46 -17 -58 -5 -131
30 -181 31 -44 144 -132 252 -196 149 -87 178 -104 205 -115 15 -6 27 -15 27
-19 0 -4 9 -8 20 -8 11 0 20 -5 20 -10 0 -6 3 -9 8 -8 4 1 27 -9 52 -22 25
-13 47 -25 50 -25 3 -1 50 -23 105 -49 143 -68 433 -196 445 -196 18 0 11 -13
-52 -89 -34 -42 -66 -80 -70 -86 -5 -5 -20 -23 -34 -40 -14 -16 -50 -62 -80
-102 -30 -39 -60 -78 -67 -85 -8 -7 -16 -18 -18 -24 -2 -6 -14 -24 -26 -40
-61 -78 -93 -124 -93 -133 0 -5 -3 -11 -8 -13 -7 -3 -64 -91 -125 -194 -31
-51 -119 -230 -147 -299 -21 -49 -69 -195 -65 -195 2 0 -2 -18 -10 -40 -8 -22
-12 -40 -10 -40 3 0 0 -12 -6 -27 -5 -14 -11 -47 -13 -73 -2 -26 -6 -52 -9
-57 -8 -12 -6 -315 2 -328 3 -5 6 -14 7 -20 1 -5 4 -24 7 -41 6 -37 24 -74 36
-74 9 0 19 41 27 110 9 74 28 179 41 235 4 17 7 32 8 35 12 55 18 77 23 85 4
6 7 15 8 22 4 25 27 89 37 101 5 6 7 12 4 12 -17 0 164 350 184 358 5 2 9 8 9
13 0 17 166 243 248 337 13 15 35 43 50 62 15 19 29 37 32 40 3 3 17 21 30 40
13 19 27 37 30 40 3 3 39 48 80 100 41 52 84 105 95 116 11 12 30 35 42 50 12
16 31 40 43 54 12 14 31 36 41 49 l20 25 52 -19 c29 -10 76 -28 105 -41 29
-13 55 -24 58 -24 3 0 94 -33 202 -74 109 -40 215 -79 237 -86 22 -7 45 -15
50 -19 6 -3 15 -6 20 -7 6 -2 64 -22 131 -45 l120 -42 -13 -71 c-8 -39 -16
-82 -18 -96 -4 -23 -17 -86 -31 -150 -28 -134 -126 -456 -169 -555 -7 -16 -32
-75 -55 -130 -55 -129 -157 -332 -235 -465 -73 -125 -196 -314 -207 -318 -4
-2 -8 -10 -8 -18 0 -8 -3 -14 -7 -14 -5 0 -19 -18 -33 -40 -13 -22 -28 -40
-32 -40 -4 0 -8 -4 -8 -10 0 -5 -7 -18 -15 -27 -8 -10 -49 -63 -92 -118 -42
-55 -80 -102 -83 -105 -13 -11 -98 -126 -109 -147 -43 -85 152 35 343 211 151
138 296 300 411 456 17 23 37 49 45 58 42 47 213 324 290 467 59 112 188 480
215 615 2 8 4 16 5 18 3 2 4 6 13 52 4 19 10 46 13 60 3 14 16 78 29 143 12
65 26 121 29 125 4 3 21 0 39 -7 18 -6 39 -14 47 -16 8 -2 67 -20 130 -40 141
-45 340 -106 360 -111 8 -2 47 -13 85 -25 39 -11 80 -23 93 -26 28 -7 28 -18
-5 -89 -15 -33 -27 -61 -28 -64 -1 -3 -8 -21 -16 -40 -9 -19 -35 -84 -58 -145
-24 -60 -47 -119 -52 -130 -21 -50 -102 -313 -114 -375 -2 -8 -4 -15 -5 -15
-1 0 -3 -11 -6 -25 -2 -14 -9 -47 -14 -75 -6 -27 -13 -63 -15 -80 -10 -63 -16
-111 -20 -150 -7 -62 -7 -305 0 -350 17 -109 38 -212 56 -263 11 -31 21 -65
24 -74 9 -38 78 -158 91 -158 14 0 13 77 -3 185 -10 66 -10 394 0 470 7 49 35
188 62 299 6 24 25 86 32 106 3 8 7 21 9 29 6 30 98 258 139 346 48 103 85
195 77 195 -4 0 -2 4 3 8 12 8 55 111 55 130 0 6 5 12 10 12 6 0 10 6 10 14 0
7 14 46 32 85 36 78 29 76 123 47 28 -8 61 -17 75 -20 14 -3 50 -12 82 -20 31
-8 67 -18 80 -20 12 -3 52 -13 88 -21 36 -9 74 -17 85 -19 11 -3 97 -20 190
-39 94 -20 188 -38 210 -41 23 -4 52 -8 65 -11 14 -3 49 -7 78 -11 29 -3 63
-8 75 -10 12 -3 84 -7 159 -9 167 -4 230 10 288 64 74 71 101 164 96 331 -3
63 -7 126 -10 140 -2 14 -7 41 -10 60 -3 19 -11 53 -16 75 -6 22 -13 48 -15
58 -2 10 -7 27 -10 37 -3 10 -8 27 -10 37 -10 48 -107 313 -146 400 -49 110
-183 380 -200 404 -10 14 -16 29 -12 33 3 3 1 6 -5 6 -7 0 -12 5 -12 11 0 29
-286 475 -388 604 -4 6 -29 39 -56 74 -27 36 -53 69 -57 75 -5 6 -19 22 -30
36 -12 14 -42 49 -67 79 -26 29 -55 63 -65 75 -107 125 -345 343 -477 436
-163 114 -352 208 -478 235 -12 3 -32 7 -44 10 -81 18 -122 23 -238 31 -114 7
-181 10 -184 7z"/>
</g>
</svg>
